<svg width="36" height="36" viewBox="0 0 36 36" fill="none" xmlns="http://www.w3.org/2000/svg">
<path d="M18 0C8.064 0 0 8.064 0 18C0 27.936 8.064 36 18 36C27.936 36 36 27.936 36 18C36 8.064 27.936 0 18 0ZM26.874 24.732C24.75 27.54 21.51 29.142 18 29.142C11.862 29.142 6.858 24.138 6.858 18C6.858 11.862 11.862 6.858 18 6.858C20.43 6.858 22.752 7.63201 24.696 9.09C25.29 9.54001 25.416 10.386 24.966 10.98C24.516 11.574 23.67 11.7 23.076 11.25C21.6 10.134 19.854 9.558 18 9.558C13.356 9.558 9.558 13.338 9.558 18C9.558 22.662 13.338 26.442 18 26.442C20.664 26.442 23.112 25.218 24.732 23.094C25.182 22.5 26.028 22.392 26.622 22.842C27.216 23.292 27.324 24.138 26.874 24.732ZM27.756 16.812C26.586 16.812 25.65 15.876 25.65 14.706C25.65 13.536 26.586 12.6 27.756 12.6C28.926 12.6 29.862 13.536 29.862 14.706C29.862 15.876 28.926 16.812 27.756 16.812Z" fill="#F9A200"/>
</svg>