<?xml version="1.0" encoding="UTF-8"?>
<svg id="Layer_2" data-name="Layer 2" xmlns="http://www.w3.org/2000/svg" viewBox="0 0 637.49 741.21">
  <defs>
    <style>
      .cls-1 {
        fill: #f0f0df;
      }

      .cls-2 {
        fill: #ff9000;
      }

      .cls-3 {
        fill: #bdd3de;
      }

      .cls-4 {
        fill: #3f5866;
      }

      .cls-5 {
        fill: #2b3a42;
      }

      .cls-6 {
        opacity: .4;
      }
    </style>
  </defs>
  <g id="Layer_1-2" data-name="Layer 1">
    <g>
      <g class="cls-6">
        <path class="cls-3" d="M202.46,726.21l-1.07-1.12-3.06-2.76c-2.49-2.25-60.9-55.79-62.48-123.14-.17-6.48-.16-12.94,.02-19.69,0-.42,.02-.9,.07-1.46,.23-4.76,.49-9.64,.76-14.62l.02-.33c3.59-46.88,16.38-74.83,27.66-99.49,10.09-22.07,18.07-39.49,18.07-66.74,0-12.08-7.73-20.34-15.2-28.32-3.67-3.92-7.2-7.69-9.73-11.96-3.16-1.79-5.91-3.71-8.28-5.37-4-2.8-6.6-4.55-8.51-4.67-2.11,.13-5.59,1.9-9.62,3.94-9.9,5.02-24.86,12.6-50.43,12.6s-41.15-10.46-50.03-33.91c-8.19-21.64-11.54-56.58-14.56-109.6-4.3-75.43,3.97-124.73,24.57-146.54,10.25-10.85,20.96-12.48,26.43-12.48,1.14,0,2.14,.07,2.98,.16,29.32,.14,42.11,5.89,53.63,12.3,4.68,2.6,6.06,3.3,9.19,3.31h.06c.61-.44,1.76-1.38,3.87-3.37,.75-.71,1.53-1.46,2.35-2.24,9.21-8.84,24.62-23.64,55.54-35.45,35.21-13.45,83.6-20.27,143.8-20.27,1.46,0,2.92,0,4.4,.01,79.62,.42,143.53,14.57,189.97,42.06,39.07,23.13,56.43,50.38,64.77,63.48l1,1.57c7.53,11.77,34.55,65.44,19,93.86-5.71,10.43-16.08,16.17-29.21,16.17-1.55,0-3.14-.08-4.77-.23,.68,3.43,1.23,6.83,1.66,10.21,1.31,10.22-.76,18.51-6.14,24.62-3.57,4.06-10.31,8.9-22.11,8.9-18.44,0-44.33-11.72-71.75-24.13-17.04-7.71-34.67-15.69-45.61-18.16-.45-.1-.9-.19-1.34-.26-.51,6.28-.96,12.82-1.44,19.63-1.71,24.56-3.49,49.96-8.04,68.74-2.8,11.6-12.62,25.11-15.78,29.24-.7,2.19-1.52,4.4-2.37,6.69-2.98,8.05-6.7,18.07-6.7,31.82,0,27.84,11.48,46.2,24.77,67.45,16.33,26.11,34.83,55.71,34.83,106.57,0,90.86-36.87,150.64-55.67,161.09l-3.4,1.89H202.46Z"/>
        <path class="cls-1" d="M338.53,30c1.43,0,2.86,0,4.31,.01,183.84,.97,227.61,75.87,243.18,100.19,13.11,20.5,39.56,86.94,2.42,86.94-6.65,0-15.34-2.13-26.52-7.04,3.99,10.78,7.05,22.28,8.53,33.91,1.54,12.07-3.86,16.63-13.37,16.63-26.49,0-84.88-35.33-114.05-41.92-2.74-.62-5.33-.89-7.79-.89-3.89,0-7.43,.68-10.68,1.77-.18,1.62-.35,3.27-.5,4.95-2.77,30.4-3.81,68.94-9.73,93.38-2.41,9.98-13.62,24.32-13.62,24.32,0,0-.29,.01-.84,.03-1.81,9.33-10.8,23.35-10.8,46.93,0,68.51,59.6,86.32,59.6,174.02s-35.63,141.13-47.96,147.98H208.87c-.32,0-.48,0-.48,0,0,0-56.09-50.69-57.54-112.36-.17-6.71-.14-13.06,.02-19.1,0-.17,0-.31,.03-.48,.24-4.88,.5-9.9,.78-15.02,6.57-85.75,45.77-104.38,45.77-167.37,0-27.8-25.98-40.44-28.44-51.29-10.86-4.6-17.44-13.94-28.33-14.03h-.16c-.07,0-.13,0-.2,.01-14.23,.5-24.2,16.53-59.63,16.53s-43.47-21.47-49.61-129.37c-7.69-134.91,27.34-143.16,36.02-143.16,1.21,0,1.91,.16,1.91,.16,46.78,0,45.36,15.61,63.97,15.61,.05,0,.1,0,.15,0,.12,0,.24,0,.36-.01,.23,0,.46,0,.7-.02,.16,0,.32,0,.48-.01,4.28-.2,7.83-3.05,12.46-7.42,17.31-16.32,49.72-53.87,191.4-53.87m0-30h0c-62.92,0-111.7,6.95-149.15,21.26-32.88,12.56-49.66,28.17-59.78,37.88-12.4-6.77-27.55-13.16-58.72-13.41-1.14-.1-2.4-.17-3.77-.17-7.88,0-23.22,2.23-37.34,17.17-11.54,12.22-19.5,29.92-24.33,54.11C.17,143.25-1.28,178.1,1.13,220.43c3.61,63.52,7.67,93.36,15.51,114.06,11.1,29.34,32.06,43.6,64.06,43.6,29.16,0,46.72-8.9,57.21-14.22,.59-.3,1.24-.63,1.89-.95,.3,.21,.59,.41,.86,.6,1.78,1.24,3.84,2.68,6.2,4.17,2.93,4.15,6.29,7.74,9.45,11.11,7.58,8.1,11.15,12.52,11.15,18.07,0,23.97-7.01,39.29-16.71,60.5-11.22,24.52-25.18,55.04-28.97,104.58l-.02,.33-.02,.33c-.26,4.78-.51,9.63-.75,14.43-.07,.85-.09,1.58-.1,2.19-.18,6.96-.18,13.62-.01,20.35,.42,17.71,4.39,35.92,11.81,54.14,5.67,13.93,13.37,27.92,22.89,41.58,15.71,22.54,31.03,36.63,32.72,38.16l5.46,4.94,2.85,2.81h12.29s191.83,0,191.83,0h7.77l6.8-3.78c20.54-11.41,36.03-44.64,41.74-58.4,9.88-23.8,21.65-63.2,21.65-115.8s-20.58-88.07-37.12-114.52c-13.05-20.88-22.48-35.96-22.48-59.5,0-11.06,2.93-18.96,5.76-26.61,.59-1.59,1.19-3.2,1.76-4.84,4.88-6.64,13.83-20.05,16.91-32.79,4.84-19.99,6.66-46.03,8.42-71.21,.01-.16,.02-.32,.03-.48,8.43,3.4,18.17,7.81,27.21,11.9,28.93,13.09,56.26,25.46,77.93,25.46,17.4,0,27.75-7.61,33.36-13.99,5.14-5.83,10.76-15.74,10.22-30.86,13.06-2.99,23.71-10.88,30.14-22.62,8.62-15.74,8.88-36.43,.82-63.26-4.85-16.13-12.83-34.13-20.34-45.87l-.98-1.54c-8.97-14.08-27.62-43.38-69.78-68.33C491.77,15.3,425.31,.45,343,.01c-1.51,0-2.99-.01-4.47-.01h0Z"/>
      </g>
      <g class="cls-6">
        <path d="M133.45,76.32c-.76,.04-1.33,.25-1.49,.33,.72-.37,2.37-1.78,4.9-4.19l29.78-28.32-4.53,40.84c-.02,.22-.05,.43-.08,.65l-.59,5.37-4.01,3.78c-5.89,5.55-12.43,11.02-21.98,11.49-.42,.02-.84,.03-1.26,.03l-.74-29.98Z"/>
        <path class="cls-1" d="M147.2,83.33c-.02,.18-.05,.36-.07,.54-4.63,4.37-8.18,7.22-12.46,7.42-.16,.01-.32,.01-.48,.01,4.45-.22,8.1-3.3,13.01-7.97M186.1,4.93l-59.57,56.66c-1.89,1.79-2.58,2.37-2.82,2.56,.03-.03,3.41-2.53,9-2.81l1.48,59.96c.34,0,1.1,0,2.06-.05,15.84-.81,26-10.4,31.47-15.56l8.01-7.56,1.18-10.65c.04-.28,.07-.56,.1-.83L186.1,4.93h0Z"/>
      </g>
    </g>
    <g>
      <path class="cls-5" d="M443.03,218.72c39.65,8.95,133.26,71.01,127.43,25.29s-35.99-89.49-51.55-95.33c-15.56-5.84-76.85-48.64-103.11-15.56-26.26,33.07-31.13,76.85-23.35,95.33,7.78,18.48,20.43-16.54,50.58-9.73Z"/>
      <path class="cls-4" d="M69.02,75.73s-46.69-10.7-37.94,142.99c6.15,107.91,13.62,129.37,49.61,129.37s45.72-16.54,60.31-16.54,21.4,16.54,40.85,16.54,218.86-5.84,218.86-5.84c0,0,11.2-14.34,13.62-24.32,5.92-24.45,6.96-62.98,9.73-93.38,3.89-42.8,15.45-69.73,136.47-15.07,75.39,34.05,41.05-54.96,25.49-79.28-15.56-24.32-59.34-99.22-243.18-100.19-183.85-.97-187.74,60.31-208.16,61.28s-17.51-15.56-65.66-15.56Z"/>
      <path class="cls-2" d="M197.92,396.87c0-34.27-39.46-45.48-25.75-58.78,46.48-45.08,191.91-38.56,225.33-5.14,9.31,8.89-8.42,23.16-8.42,56.25,0,68.51,59.59,86.32,59.59,174.02s-35.63,141.13-47.96,147.99H208.88s-56.1-50.7-57.55-112.36c-2.74-116.47,46.59-131.29,46.59-201.99Z"/>
      <path class="cls-6" d="M252.24,711.21h-43.85s-56.1-50.69-57.54-112.36c-.17-6.71-.14-13.06,.02-19.1,0-.17,0-.31,.02-.47,.24-4.88,.5-9.91,.78-15.03,6.57-85.75,45.77-104.38,45.77-167.37,0-27.8-25.98-40.43-28.44-51.29-10.9-4.62-17.49-14.03-28.49-14.03-4.24,0-8.06,1.37-12.23,3.37-25.1-47.07-37.26-192.02-11.28-248.17,5.07,2.77,9.46,4.93,17.18,4.55,4.46-.21,8.11-3.29,13.01-7.96-6.99,54.37,15.64,182.68,49.01,238.88,4.98,8.41,10.21,15.22,15.62,19.91,1.85,1.61,3.46,3.37,4.83,5.24,24.93,33.82-23.04,109.04-28.58,125.59-31.33,93.83,20.83,225.22,64.16,238.26Z"/>
    </g>
  </g>
</svg>