<?xml version="1.0" encoding="UTF-8"?>
<svg id="Layer_2" data-name="Layer 2" xmlns="http://www.w3.org/2000/svg" viewBox="0 0 805.59 805.59">
  <defs>
    <style>
      .cls-1 {
        fill: #ff9000;
      }

      .cls-2 {
        fill: #bdd3de;
      }

      .cls-3 {
        fill: #3f5866;
      }

      .cls-4 {
        fill: #2b3a42;
      }

      .cls-5 {
        opacity: .22;
      }
    </style>
  </defs>
  <g id="Layer_1-2" data-name="Layer 1">
    <rect class="cls-2" width="805.59" height="805.59" rx="156.24" ry="156.24"/>
    <g>
      <path class="cls-4" d="M562.28,249.51c39.65,8.95,133.26,71.01,127.43,25.29s-35.99-89.49-51.55-95.33c-15.56-5.84-76.85-48.64-103.11-15.56s-31.13,76.85-23.35,95.33c7.78,18.48,20.43-16.54,50.58-9.73Z"/>
      <path class="cls-3" d="M188.27,106.52s-46.69-10.7-37.94,142.99c6.15,107.91,13.62,129.37,49.61,129.37s45.72-16.54,60.31-16.54,21.4,16.54,40.85,16.54,218.86-5.84,218.86-5.84c0,0,11.2-14.34,13.62-24.32,5.92-24.45,6.96-62.98,9.73-93.38,3.89-42.8,15.45-69.73,136.47-15.07,75.39,34.05,41.05-54.96,25.49-79.28s-59.34-99.22-243.18-100.19-187.74,60.31-208.16,61.28c-20.43,.97-17.51-15.56-65.66-15.56Z"/>
      <path class="cls-1" d="M317.17,427.66c0-34.27-39.46-45.48-25.75-58.78,46.48-45.08,191.91-38.56,225.33-5.14,9.31,8.89-8.42,23.16-8.42,56.25,0,68.51,59.59,86.32,59.59,174.02s-35.63,141.13-47.96,147.99h-191.83s-56.1-50.7-57.55-112.36c-2.74-116.47,46.59-131.29,46.59-201.99Z"/>
      <path class="cls-5" d="M371.5,741.99h-43.85s-56.1-50.69-57.54-112.36c-.17-6.71-.14-13.06,.02-19.1,0-.17,0-.31,.02-.47,.24-4.88,.5-9.91,.78-15.03,6.57-85.75,45.77-104.38,45.77-167.37,0-27.8-25.98-40.43-28.44-51.29-10.9-4.62-17.49-14.03-28.49-14.03-4.24,0-8.06,1.37-12.23,3.37-25.1-47.07-37.26-192.02-11.28-248.17,5.07,2.77,9.46,4.93,17.18,4.55,4.46-.21,8.11-3.29,13.01-7.96-6.99,54.37,15.64,182.68,49.01,238.88,4.98,8.41,10.21,15.22,15.62,19.91,1.85,1.61,3.46,3.37,4.83,5.24,24.93,33.82-23.04,109.04-28.58,125.59-31.33,93.83,20.83,225.22,64.16,238.26Z"/>
    </g>
    <g>
      <path class="cls-4" d="M558.28,249.51c39.65,8.95,133.26,71.01,127.43,25.29s-35.99-89.49-51.55-95.33c-15.56-5.84-76.85-48.64-103.11-15.56s-31.13,76.85-23.35,95.33c7.78,18.48,20.43-16.54,50.58-9.73Z"/>
      <path class="cls-3" d="M184.27,106.52s-46.69-10.7-37.94,142.99c6.15,107.91,13.62,129.37,49.61,129.37s45.72-16.54,60.31-16.54,21.4,16.54,40.85,16.54,218.86-5.84,218.86-5.84c0,0,11.2-14.34,13.62-24.32,5.92-24.45,6.96-62.98,9.73-93.38,3.89-42.8,15.45-69.73,136.47-15.07,75.39,34.05,41.05-54.96,25.49-79.28s-59.34-99.22-243.18-100.19-187.74,60.31-208.16,61.28c-20.43,.97-17.51-15.56-65.66-15.56Z"/>
      <path class="cls-1" d="M313.17,427.66c0-34.27-39.46-45.48-25.75-58.78,46.48-45.08,191.91-38.56,225.33-5.14,9.31,8.89-8.42,23.16-8.42,56.25,0,68.51,59.59,86.32,59.59,174.02s-35.63,141.13-47.96,147.99h-191.83s-56.1-50.7-57.55-112.36c-2.74-116.47,46.59-131.29,46.59-201.99Z"/>
      <path class="cls-5" d="M367.5,741.99h-43.85s-56.1-50.69-57.54-112.36c-.17-6.71-.14-13.06,.02-19.1,0-.17,0-.31,.02-.47,.24-4.88,.5-9.91,.78-15.03,6.57-85.75,45.77-104.38,45.77-167.37,0-27.8-25.98-40.43-28.44-51.29-10.9-4.62-17.49-14.03-28.49-14.03-4.24,0-8.06,1.37-12.23,3.37-25.1-47.07-37.26-192.02-11.28-248.17,5.07,2.77,9.46,4.93,17.18,4.55,4.46-.21,8.11-3.29,13.01-7.96-6.99,54.37,15.64,182.68,49.01,238.88,4.98,8.41,10.21,15.22,15.62,19.91,1.85,1.61,3.46,3.37,4.83,5.24,24.93,33.82-23.04,109.04-28.58,125.59-31.33,93.83,20.83,225.22,64.16,238.26Z"/>
    </g>
  </g>
</svg>